<?xml version="1.0" standalone="no"?><!DOCTYPE svg PUBLIC "-//W3C//DTD SVG 1.1//EN" "http://www.w3.org/Graphics/SVG/1.1/DTD/svg11.dtd"><svg t="1687075294501" class="icon" viewBox="0 0 1024 1024" version="1.1" xmlns="http://www.w3.org/2000/svg" p-id="1311" xmlns:xlink="http://www.w3.org/1999/xlink" width="200" height="200"><path d="M665.531317 95.419317a43.707317 43.707317 0 0 1-9.521951 59.991415l-1.211317 0.88039-94.601366 66.235317 2.722341 0.462049c159.612878 28.147512 266.190049 180.355122 238.042537 339.968-14.005073 79.422439-58.730146 145.720195-119.795512 188.81561a43.501268 43.501268 0 0 1-9.434537 9.709268l-1.217561 0.886634-253.165268 177.26439a43.707317 43.707317 0 0 1-51.356098-70.718439l1.217561-0.886634 95.350634-66.753561a299.726049 299.726049 0 0 1-1.560975-0.274732C301.386927 772.857756 194.809756 620.650146 222.951024 461.037268 236.706341 383.025951 280.101463 317.689756 339.499707 274.550634a43.607415 43.607415 0 0 1 10.776976-11.713561l1.211317-0.886634 253.165268-177.26439a43.707317 43.707317 0 0 1 60.878049 10.733268zM547.740098 309.073171c-112.071805-19.761951-218.936195 55.07122-238.704391 167.13678-19.755707 112.071805 55.07122 218.936195 167.149269 238.70439 112.065561 19.755707 218.929951-55.07122 238.691902-167.149268 19.761951-112.065561-55.07122-218.929951-167.13678-238.691902z" p-id="1312" fill="#13227a"></path></svg>